/* XPM */
static char *da55321f64024921f320041024c433379aIWbN4BxU7awGLz[] = {
/* columns rows colors chars-per-pixel */
"32 32 234 2 ",
"   c #2C2943",
".  c #483860",
"X  c #211B31",
"o  c #2B0178",
"O  c #6006AB",
"+  c #573F7F",
"@  c #8308E4",
"#  c #1D1423",
"$  c #291734",
"%  c #2A1639",
"&  c #2A163A",
"*  c #30183E",
"=  c #31193F",
"-  c #2D173B",
";  c #2C173B",
":  c #2E183B",
">  c #30193D",
",  c #2D173C",
"<  c #30193E",
"1  c #2E183C",
"2  c #2C1739",
"3  c #32193F",
"4  c #2B1738",
"5  c #2B173A",
"6  c #2F1E44",
"7  c #583E81",
"8  c #22152C",
"9  c #471670",
"0  c #6E269B",
"q  c #672395",
"w  c #5A1D89",
"e  c #561B88",
"r  c #611F8E",
"t  c #672296",
"y  c #5A1D8A",
"u  c #642093",
"i  c #601E8F",
"p  c #642090",
"a  c #5E1E8F",
"s  c #581C87",
"d  c #73289F",
"f  c #6B2496",
"g  c #622092",
"h  c #591C8B",
"j  c #70279A",
"k  c #6F259B",
"l  c #5E1E8B",
"z  c #5B1D8E",
"x  c #621F90",
"c  c #6A2498",
"v  c #4B128C",
"b  c #8209E2",
"n  c #2C173A",
"m  c #662191",
"M  c #7526A8",
"N  c #7A29AB",
"B  c #7E2DAF",
"V  c #9240CA",
"C  c #7829AA",
"Z  c #7426A7",
"A  c #9743CD",
"S  c #802CB0",
"D  c #7B29AC",
"F  c #6B23A0",
"G  c #66209C",
"H  c #7727A9",
"J  c #842FB3",
"K  c #6E24A3",
"L  c #7E27BD",
"P  c #583F80",
"I  c #221B32",
"U  c #35184B",
"Y  c #6D249F",
"T  c #8630B5",
"R  c #7F2DB0",
"E  c #69229E",
"W  c #7C2BAD",
"Q  c #802EB1",
"!  c #7E2BAE",
"~  c #7D2AAD",
"^  c #812EB1",
"/  c #6B22A0",
"(  c #5B2983",
")  c #8208E3",
"_  c #4D2068",
"`  c #7428A5",
"'  c #67219D",
"]  c #69229F",
"[  c #7326A6",
"{  c #6F24A3",
"}  c #67219E",
"|  c #65209B",
" . c #641F9A",
".. c #7A2AAC",
"X. c #792AAB",
"o. c #621F99",
"O. c #502776",
"+. c #6107AB",
"@. c #461A6A",
"#. c #621E99",
"$. c #7628A9",
"%. c #6D23A2",
"&. c #7025A4",
"*. c #7527A8",
"=. c #601E98",
"-. c #9442C9",
";. c #472868",
":. c #241B36",
">. c #72349D",
",. c #6D24A1",
"<. c #7427A7",
"1. c #7728A9",
"2. c #7125A5",
"3. c #7226A6",
"4. c #7628A5",
"5. c #392955",
"6. c #291C3D",
"7. c #5E2088",
"8. c #822DB2",
"9. c #7F2CAF",
"0. c #6C22A1",
"q. c #611E98",
"w. c #6C23A0",
"e. c #7C2BAE",
"r. c #692595",
"t. c #31284A",
"y. c #34284F",
"u. c #792CA3",
"i. c #8932B8",
"p. c #69219F",
"a. c #65209D",
"s. c #7124A5",
"d. c #67209E",
"f. c #852FB4",
"g. c #68278F",
"h. c #840AE3",
"j. c #3E2D5A",
"k. c #60208D",
"l. c #7627A8",
"z. c #8D36BC",
"x. c #5D257C",
"c. c #231B34",
"v. c #382854",
"b. c #7B2DA5",
"n. c #822DB1",
"m. c #6F24A4",
"M. c #8831B7",
"N. c #4C1D6D",
"B. c #231B33",
"V. c #372953",
"C. c #5D1F8D",
"Z. c #631F9A",
"A. c #4B2063",
"S. c #281C3C",
"D. c #63228F",
"F. c #6B22A1",
"G. c #66219D",
"H. c #3D1A57",
"J. c #271D38",
"K. c #5F218D",
"L. c #68219F",
"P. c #5F1D97",
"I. c #481F5F",
"U. c #6A2890",
"Y. c #8733B9",
"T. c #421D58",
"R. c #211B32",
"E. c #2E2946",
"W. c #592082",
"Q. c #7828AA",
"!. c #4E2167",
"~. c #5A2379",
"^. c #461B65",
"/. c #2D2944",
"(. c #461C64",
"). c #7225A5",
"_. c #66209D",
"`. c #5A2083",
"'. c #461D5F",
"]. c #632292",
"[. c #362B50",
"{. c #3F1A58",
"}. c #7C2DAB",
"|. c #650DAB",
" X c #4B2065",
".X c #66219C",
"XX c #3B1F55",
"oX c #8308E3",
"OX c #3F195E",
"+X c #7C2AAD",
"@X c #9241C6",
"#X c #371E50",
"$X c #221B33",
"%X c #6E3394",
"&X c #7D2DA9",
"*X c #7829A6",
"=X c #7628A4",
"-X c #7E2DA9",
";X c #7D2DAA",
":X c #6B239A",
">X c #7527A4",
",X c #7527A1",
"<X c #7326A3",
"1X c #641F99",
"2X c #8730B5",
"3X c #7328A1",
"4X c #361E4D",
"5X c #281634",
"6X c #2C173C",
"7X c #2D173D",
"8X c #391A4E",
"9X c #431D5A",
"0X c #471B68",
"qX c #491C6B",
"wX c #5E2384",
"eX c #612485",
"rX c #5D2085",
"tX c #5D2185",
"yX c #6A278F",
"uX c #6F2898",
"iX c #581E84",
"pX c #5F2090",
"aX c #5E208E",
"sX c #63248B",
"dX c #2A1C40",
"fX c #2E2945",
"gX c #2D0279",
"hX c #241C35",
"jX c #2F2847",
"kX c #32284D",
"lX c #630BAA",
"zX c #331E4A",
"xX c #321D4A",
"cX c #321E48",
/* pixels */
"  . X X   o o . . . . . o o . . . . . . . . . o o O .   X X .   ",
". X   + o O + + + + + + + O o + + + + + + + + o @ + + + +   X . ",
"X   + X + O + + + + + o O o + + + + + + + + + + O o + + X +   X ",
"X + X X X X o X         o   X X X X X X           O X X X X + X ",
"  + + X # $ % & * = - ; : > , ; < 1 , 2 > 3 ; & 1 = 4 5 6 7 o   ",
". + + X 8 9 0 q w e r t y u i p a s d f g h j k l z x c v b O o ",
"o + o O n m M N B V C Z A A S D V V F G H H M N J A C K L P O o ",
"o O O I U Y T R G E W Q ! ~ ^ R / / V V G F T R G E W Q ( + o . ",
". o O ) _ ` ' F ] [ { } H K |  ...X. .] R C ' F ] [ { o.O.+ + . ",
". + + +.@.#.K $.%.~ A V &.X.V V ] K *...=.#.K $.%.~ A -.;.+ + . ",
". + + :.>.Q S C ^ B ,.<.1.2.G 3.R ^ G F V Q ..C ^ B [ 4.5.+ + . ",
". + + 6.7.2.8.9.0.' ] 1.q.q.w.1.G ' $.$./ F e.X.G ' ] r.t.o + o ",
". + + y.u.i.p.a.H 8.N 9.A A ~ } 2.s.a.d.f.i.p.a.H 8.N g.h.@ O o ",
". + + j.k.2.N [ a.l.9.T M l.T A 9.! z.A 0.2.N [ a.l.9.x.c.O o . ",
". + + v.b.N ~ n.A J { m.D 9.2.0.i.M.3.K T N ~ n.A J { N.B.o + . ",
". + + V.C.2.T z.M s.! f.0.%.J T Z.' R *.G F T z.M s.! A.I + + . ",
". + + S.D.e.' E ! S d.F.N N G Z.G./ | G 2.e.' E ! S d.H.I + + . ",
". + + J.K.G R *.G L.D R P. .C K 3.1.V V F G R D 0.L.D I.X + + . ",
"o + O +.U.Q D [ ..Q X.X.Y.A S 1.B Q ,.&.i.T D [ S T 9.T.R.+ + . ",
"o O o E.W.2.H T %.K Q T Q.s.A f.3.s.n.T [ 2.H T %.Z T !.I + + . ",
". o + B.~.n.d.a.D S { p.8.8.F.d.~ M %.Q.8.n.d.a.D S { ^./.+ + . ",
". + + I (.a.S D %.a.s.[ } { 0.).p._.S D %.a.S D %.a./ `.E.+ + . ",
". + + /.'.H M N B V C K A A S D V V F G 2.2.M N B V C ].[.+ + . ",
". + + /.{.2.Q R G E W T ! ~ ^ R / / V V 0.2.T f.G E W }.|.o + O ",
". + + O  XC ' F ] ,.E o.2.K |  .S X. .m.f.! %.2.m.[ { .XXXoXO o ",
". o O /.OX#.K $.%.~ A V &.X.V V ] Z D S a.d.Z +X%.~ A @X#XO + o ",
"o O @ $X%X&X*X=X-X;X:X>X,X<X1X3.R ^ 0.2.A T S ! 2XB [ 3X4X+ + . ",
"  o + X 5X- : = , - ; < 6X7X8X9X0XqXwXeXrXtXyXuXiXpXaXsXdX+ +   ",
"X + X X X X oXX I I   /./.  I I $Xc.fXgXhXc.jXkXlXzXxXcXhXX + X ",
"X   + X + + + @ o + + + + + + + + + o O + + + + + O @ + X +   X ",
". X   + + + o O + + + + + + + + + o O + + + + + + + o O +   X . ",
"  . X X   o O O o . . . . . . . . . o o . . . . . o o   X X .   "
};
